<svg id="visual" viewBox="0 0 900 150" width="900" height="150" xmlns="http://www.w3.org/2000/svg" xmlns:xlink="http://www.w3.org/1999/xlink" version="1.1"><path d="M0 17L180 29L360 21L540 62L720 43L900 54L900 151L720 151L540 151L360 151L180 151L0 151Z" fill="#508a3d"></path>
<path d="M0 61L180 94L360 53L540 87L720 73L900 59L900 151L720 151L540 151L360 151L180 151L0 151Z" fill="#9dc38a"></path>
<path d="M0 135L180 90L360 97L540 127L720 126L900 106L900 151L720 151L540 151L360 151L180 151L0 151Z" fill="#eaffdc"></path>
</svg>
