<svg id="visual" viewBox="0 0 900 150" width="900" height="150" xmlns="http://www.w3.org/2000/svg" xmlns:xlink="http://www.w3.org/1999/xlink" version="1.1"><path d="M0 64L180 61L360 54L540 63L720 23L900 55L900 151L720 151L540 151L360 151L180 151L0 151Z" fill="#508a3d"></path>
<path d="M0 50L180 68L360 77L540 89L720 84L900 96L900 151L720 151L540 151L360 151L180 151L0 151Z" fill="#9dc38a"></path>
<path d="M0 108L180 118L360 103L540 127L720 99L900 112L900 151L720 151L540 151L360 151L180 151L0 151Z" fill="#eaffdc"></path>
</svg>
