<svg id="visual" viewBox="0 0 900 150" width="900" height="150" xmlns="http://www.w3.org/2000/svg" xmlns:xlink="http://www.w3.org/1999/xlink" version="1.1"><path d="M0 55L180 8L360 40L540 64L720 23L900 51L900 151L720 151L540 151L360 151L180 151L0 151Z" fill="#508a3d"></path>
<path d="M0 57L180 64L360 104L540 87L720 78L900 99L900 151L720 151L540 151L360 151L180 151L0 151Z" fill="#9dc38a"></path>
<path d="M0 128L180 97L360 140L540 108L720 100L900 87L900 151L720 151L540 151L360 151L180 151L0 151Z" fill="#eaffdc"></path>
</svg>
