<svg id="visual" viewBox="0 0 900 150" width="900" height="150" xmlns="http://www.w3.org/2000/svg" xmlns:xlink="http://www.w3.org/1999/xlink" version="1.1"><path d="M0 66L180 49L360 66L540 51L720 34L900 10L900 151L720 151L540 151L360 151L180 151L0 151Z" fill="#508a3d"></path>
<path d="M0 64L180 100L360 71L540 86L720 86L900 102L900 151L720 151L540 151L360 151L180 151L0 151Z" fill="#9dc38a"></path>
<path d="M0 117L180 116L360 140L540 133L720 94L900 124L900 151L720 151L540 151L360 151L180 151L0 151Z" fill="#eaffdc"></path>
</svg>
