

<svg id="visual" viewBox="0 0 900 150" width="900" height="150" xmlns="http://www.w3.org/2000/svg" xmlns:xlink="http://www.w3.org/1999/xlink" version="1.1"><path d="M0 31L25 29.3C50 27.7 100 24.3 150 26.5C200 28.7 250 36.3 300 35.2C350 34 400 24 450 24.7C500 25.3 550 36.7 600 44C650 51.3 700 54.7 750 48.8C800 43 850 28 875 20.5L900 13L900 151L875 151C850 151 800 151 750 151C700 151 650 151 600 151C550 151 500 151 450 151C400 151 350 151 300 151C250 151 200 151 150 151C100 151 50 151 25 151L0 151Z" fill="#fa7268"></path>
<path d="M0 51L25 58C50 65 100 79 150 78.7C200 78.3 250 63.7 300 60.3C350 57 400 65 450 65.3C500 65.7 550 58.3 600 62.2C650 66 700 81 750 82.8C800 84.7 850 73.3 875 67.7L900 62L900 151L875 151C850 151 800 151 750 151C700 151 650 151 600 151C550 151 500 151 450 151C400 151 350 151 300 151C250 151 200 151 150 151C100 151 50 151 25 151L0 151Z" fill="#e34c67"></path>
<path d="M0 116L25 117.2C50 118.3 100 120.7 150 117C200 113.3 250 103.7 300 102.3C350 101 400 108 450 113.7C500 119.3 550 123.7 600 119.8C650 116 700 104 750 99C800 94 850 96 875 97L900 98L900 151L875 151C850 151 800 151 750 151C700 151 650 151 600 151C550 151 500 151 450 151C400 151 350 151 300 151C250 151 200 151 150 151C100 151 50 151 25 151L0 151Z" fill="#c62368"></path>
</svg>
